<svg xmlns="http://www.w3.org/2000/svg" width="24" height="24" viewBox="0 0 24 24" fill="none" stroke="currentColor"
     stroke-width="1" stroke-linecap="round" stroke-linejoin="round"
     class="icon icon-tabler icons-tabler-animated icon-tabler-brand-paypal">
    <path stroke="none" d="M0 0h24v24H0z" fill="none"/>
    <g transform="translate(12 12)">
        <g>
            <animateTransform attributeName="transform" type="scale" values="1;1.06;1" dur="3s" repeatCount="indefinite" keyTimes="0;0.5;1" calcMode="spline" keySplines="0.42 0 0.58 1;0.42 0 0.58 1"/>
            <g transform="translate(-12 -12)">
                <path d="M10 13l2.5 0c2.5 0 5 -2.5 5 -5c0 -3 -1.9 -5 -5 -5h-5.5c-.5 0 -1 .5 -1 1l-2 14c0 .5 .5 1 1 1h2.8l1.2 -5c.1 -.6 .4 -1 1 -1m7.5 -5.8c1.7 1 2.5 2.8 2.5 4.8c0 2.5 -2.5 4.5 -5 4.5h-2.6l-.6 3.6a1 1 0 0 1 -1 .8l-2.7 0a.5 .5 0 0 1 -.5 -.6l.2 -1.4"/>
            </g>
        </g>
    </g>
</svg>
