<svg xmlns="http://www.w3.org/2000/svg" width="24" height="24" viewBox="0 0 24 24" fill="none" stroke="currentColor"
     stroke-width="1" stroke-linecap="round" stroke-linejoin="round"
     class="icon icon-tabler icons-tabler-animated icon-tabler-kayak">
    <path stroke="none" d="M0 0h24v24H0z" fill="none"/>
    <path d="M22 2.5c-9.983 2.601 -17.627 7.952 -20 19.5c9.983 -2.601 17.627 -7.952 20 -19.5"/>
    <path d="M6.5 12.5l5 5"/>
    <path d="M12.5 6.5l5 5"/>
    <g>
        <animateTransform attributeName="transform" type="rotate" values="0 12 12;12 12 12;-12 12 12;0 12 12" dur="3s" repeatCount="indefinite" keyTimes="0;0.333;0.667;1" calcMode="spline" keySplines="0.33 0.66 0.67 1.00;0.42 0 0.58 1;0.33 0.00 0.67 0.34"/>
        <path d="M6.414 6.414a2 2 0 0 0 0 -2.828l-1.414 -1.414l-2.828 2.828l1.414 1.414a2 2 0 0 0 2.828 0"/>
        <path d="M17.586 17.586a2 2 0 0 0 0 2.828l1.414 1.414l2.828 -2.828l-1.414 -1.414a2 2 0 0 0 -2.828 0"/>
        <path d="M6.5 6.5l11 11"/>
    </g>
</svg>
