<svg xmlns="http://www.w3.org/2000/svg" width="24" height="24" viewBox="0 0 24 24" fill="none" stroke="currentColor"
     stroke-width="1" stroke-linecap="round" stroke-linejoin="round"
     class="icon icon-tabler icons-tabler-animated icon-tabler-satellite">
    <path stroke="none" d="M0 0h24v24H0z" fill="none"/>
    <g>
        <animateTransform attributeName="transform" type="rotate" values="0 9 9;-4 9 9;0 9 9;3 9 9;0 9 9" dur="4s" repeatCount="indefinite" keyTimes="0;0.25;0.5;0.75;1" calcMode="spline" keySplines="0.33 0.66 0.67 1.00;0.33 0.00 0.67 0.34;0.33 0.66 0.67 1.00;0.33 0.00 0.67 0.34"/>
        <path d="M3.707 6.293l2.586 -2.586a1 1 0 0 1 1.414 0l5.586 5.586a1 1 0 0 1 0 1.414l-2.586 2.586a1 1 0 0 1 -1.414 0l-5.586 -5.586a1 1 0 0 1 0 -1.414"/>
        <path d="M6 10l-3 3l3 3l3 -3"/>
        <path d="M10 6l3 -3l3 3l-3 3"/>
        <path d="M12 12l1.5 1.5"/>
    </g>
    <g>
        <animate attributeName="opacity" values="1;0.15;1;1" keyTimes="0;0.25;0.5;1" dur="2s" repeatCount="indefinite" calcMode="spline" keySplines="0.42 0 0.58 1;0.42 0 0.58 1;0.42 0 0.58 1"/>
        <path d="M14.5 17a2.5 2.5 0 0 0 2.5 -2.5"/>
    </g>
    <g>
        <animate attributeName="opacity" values="1;1;0.15;1;1" keyTimes="0;0.2;0.45;0.7;1" dur="2s" repeatCount="indefinite" calcMode="spline" keySplines="0.42 0 0.58 1;0.42 0 0.58 1;0.42 0 0.58 1;0.42 0 0.58 1"/>
        <path d="M15 21a6 6 0 0 0 6 -6"/>
    </g>
</svg>
