<svg xmlns="http://www.w3.org/2000/svg" width="24" height="24" viewBox="0 0 24 24" fill="none" stroke="currentColor"
     stroke-width="1" stroke-linecap="round" stroke-linejoin="round"
     class="icon icon-tabler icons-tabler-animated icon-tabler-brand-medium">
    <path stroke="none" d="M0 0h24v24H0z" fill="none"/>
    <g transform="translate(12 12)">
        <g>
            <animateTransform attributeName="transform" type="scale" values="1;1.06;1" dur="3s" repeatCount="indefinite" keyTimes="0;0.5;1" calcMode="spline" keySplines="0.42 0 0.58 1;0.42 0 0.58 1"/>
            <g transform="translate(-12 -12)">
                <path d="M4 6a2 2 0 0 1 2 -2h12a2 2 0 0 1 2 2v12a2 2 0 0 1 -2 2h-12a2 2 0 0 1 -2 -2l0 -12"/>
                <path d="M8 9h1l3 3l3 -3h1"/>
                <path d="M8 15l2 0"/>
                <path d="M14 15l2 0"/>
                <path d="M9 9l0 6"/>
                <path d="M15 9l0 6"/>
            </g>
        </g>
    </g>
</svg>
