<svg xmlns="http://www.w3.org/2000/svg" width="24" height="24" viewBox="0 0 24 24" fill="none" stroke="currentColor"
     stroke-width="1" stroke-linecap="round" stroke-linejoin="round"
     class="icon icon-tabler icons-tabler-animated icon-tabler-droplet-heart">
    <path stroke="none" d="M0 0h24v24H0z" fill="none"/>
    <path d="M18.288 11.282a6.734 6.734 0 0 0 -.224 -.405l-4.89 -7.26c-.42 -.625 -1.287 -.803 -1.936 -.397a1.376 1.376 0 0 0 -.41 .397l-4.893 7.26c-1.695 2.838 -1.035 6.441 1.567 8.546a7.117 7.117 0 0 0 3.824 1.548"/>
    <g transform="translate(18 18.5)">
        <g>
            <animateTransform attributeName="transform" type="scale" values="1;1.15;1;1.1;1;1" keyTimes="0;0.15;0.3;0.45;0.7;1" dur="1.4s" repeatCount="indefinite" calcMode="spline" keySplines="0.42 0 0.58 1;0.42 0 0.58 1;0.42 0 0.58 1;0.42 0 0.58 1;0.42 0 0.58 1"/>
            <g transform="translate(-18 -18.5)">
                <path d="M18 22l3.35 -3.284a2.143 2.143 0 0 0 .005 -3.071a2.242 2.242 0 0 0 -3.129 -.006l-.224 .22l-.223 -.22a2.242 2.242 0 0 0 -3.128 -.006a2.143 2.143 0 0 0 -.006 3.071l3.355 3.296"/>
            </g>
        </g>
    </g>
</svg>
